<svg width="44" height="35" viewBox="0 0 44 35" fill="none" xmlns="http://www.w3.org/2000/svg">
<path d="M19.6719 23.125C19.6719 24.6042 19.4688 25.9167 19.0625 27.0625C18.6562 28.2083 18.0677 29.1719 17.2969 29.9531C16.526 30.7344 15.5938 31.3281 14.5 31.7344C13.4062 32.1302 12.1719 32 10.7969 32C9.51562 32 8.5 32 7.27373 31.7344C6.21123 31.3281 5.27604 30.7344 4.48438 29.9531C3.69271 29.1719 3.07812 28.2083 2.64062 27.0625C2.21354 25.9167 2 24.6042 2 23.125C2 21.1667 2.35417 19.5104 3.0625 18.1562C3.78125 16.8021 4.80208 15.7708 6.125 15.0625C7.45833 14.3542 9.04688 14 10.8906 14C12.5885 14 14.099 14.3542 15.4219 15.0625C16.7448 15.7708 17.7812 16.8021 18.5312 18.1562C19.2917 19.5104 19.6719 21.1667 19.6719 23.125ZM8.20312 23.125C8.20312 24.1354 8.29167 24.9896 8.46875 25.6875C8.64583 26.375 8.92708 26.901 9.3125 27.2656C9.70833 27.6198 10.224 27.7969 10.8594 27.7969C11.4948 27.7969 12 27.6198 12.375 27.2656C12.75 26.901 13.0208 26.375 13.1875 25.6875C13.3646 24.9896 13.4531 24.1354 13.4531 23.125C13.4531 22.1146 13.3646 21.2708 13.1875 20.5938C13.0208 19.9167 12.7448 19.4062 12.3594 19.0625C11.9844 18.7188 11.474 18.5469 10.8281 18.5469C9.90104 18.5469 9.22917 18.9323 8.8125 19.7031C8.40625 20.474 8.20312 21.6146 8.20312 23.125Z" fill="black"/>
<path d="M8.20312 23.125C8.20312 24.1354 8.29167 24.9896 8.46875 25.6875C8.64583 26.375 8.92708 26.901 9.3125 27.2656C9.70833 27.6198 10.224 27.7969 10.8594 27.7969C11.4948 27.7969 12 27.6198 12.375 27.2656C12.75 26.901 13.0208 26.375 13.1875 25.6875C13.3646 24.9896 13.4531 24.1354 13.4531 23.125C13.4531 22.1146 13.3646 21.2708 13.1875 20.5938C13.0208 19.9167 12.7448 19.4062 12.3594 19.0625C11.9844 18.7188 11.474 18.5469 10.8281 18.5469C9.90104 18.5469 9.22917 18.9323 8.8125 19.7031C8.40625 20.474 8.20312 21.6146 8.20312 23.125Z" fill="white"/>
<path d="M14.8403 32.6747L14.8403 32.6747L14.8482 32.6718C16.0701 32.218 17.1289 31.5472 18.0087 30.6555C18.8931 29.7591 19.5551 28.6656 20.005 27.3967C20.4565 26.1231 20.6719 24.6942 20.6719 23.125C20.6719 21.0404 20.2672 19.2067 19.4047 17.6694C18.5647 16.1536 17.3913 14.9827 15.8939 14.1809C14.4076 13.3851 12.7313 13 10.8906 13C8.91906 13 7.16225 13.3791 5.65584 14.1794L5.65584 14.1794L5.65297 14.1809C4.15105 14.9851 2.98889 16.1619 2.17921 17.6874L2.17919 17.6874L2.1764 17.6928C1.37515 19.2246 1 21.0494 1 23.125C1 24.6991 1.22716 26.1335 1.7036 27.4118L1.70357 27.4118L1.70641 27.4192C2.18962 28.6848 2.87849 29.7733 3.78197 30.6649C4.67627 31.5474 5.73044 32.2149 6.91659 32.6684L6.98766 32.6956L7.06203 32.7117C8.3932 33.0001 9.50102 33 10.7583 33H10.7969C11.0298 33 11.2865 33.0048 11.5494 33.0097C11.9674 33.0175 12.4014 33.0257 12.7813 33.0152C13.4461 32.997 14.1494 32.9247 14.8403 32.6747Z" stroke="white" stroke-width="2"/>
<path d="M31 16.3639C31 19.8523 30.5152 22.7524 29.5455 25.0643C28.5759 27.3762 27.2082 29.1135 25.4424 30.2763C23.6868 31.4254 21.6199 32 19.2417 32H12V2H19.747C22.1558 2 24.1972 2.55404 25.8711 3.66211C27.545 4.77018 28.8157 6.39124 29.6833 8.52531C30.5611 10.6594 31 13.2722 31 16.3639ZM24.7228 16.6512C24.7228 14.8317 24.5391 13.3269 24.1716 12.1368C23.8144 10.933 23.2734 10.0369 22.5488 9.4487C21.8241 8.84679 20.9106 8.54583 19.8082 8.54583H18.0475V25.3516H19.3948C21.2321 25.3516 22.5794 24.6402 23.4367 23.2175C24.2941 21.7811 24.7228 19.5923 24.7228 16.6512Z" fill="black"/>
<path d="M24.7228 16.6512C24.7228 14.8317 24.5391 13.3269 24.1716 12.1368C23.8144 10.933 23.2734 10.0369 22.5488 9.4487C21.8241 8.84679 20.9106 8.54583 19.8082 8.54583H18.0475V25.3516H19.3948C21.2321 25.3516 22.5794 24.6402 23.4367 23.2175C24.2941 21.7811 24.7228 19.5923 24.7228 16.6512Z" fill="white"/>
<path d="M25.99 31.113L25.9924 31.1115C27.9528 29.8205 29.4358 27.9114 30.4677 25.4511C31.5046 22.9788 32 19.9366 32 16.3639C32 13.1844 31.5496 10.4346 30.6089 8.14674C29.677 5.85538 28.2883 4.06299 26.4231 2.82825C24.5551 1.59176 22.3123 1 19.747 1H12H11V2V32V33H12H19.2417C21.7877 33 24.0507 32.3825 25.99 31.113Z" stroke="white" stroke-width="2"/>
<path d="M41.6719 23.125C41.6719 24.6042 41.4688 25.9167 41.0625 27.0625C40.6562 28.2083 40.0677 29.1719 39.2969 29.9531C38.526 30.7344 37.5938 31.1944 36.5 31.6007C35.4062 31.9965 34.2344 32 32.8594 32C31.5781 32 30.3385 31.9965 29.2656 31.6007C28.2031 31.1944 27.276 30.7344 26.4844 29.9531C25.6927 29.1719 25.0781 28.2083 24.6406 27.0625C24.2135 25.9167 24 24.6042 24 23.125C24 21.1667 24.3542 19.5104 25.0625 18.1562C25.7812 16.8021 26.8021 15.7708 28.125 15.0625C29.4583 14.3542 31.0469 14 32.8906 14C34.5885 14 36.099 14.3542 37.4219 15.0625C38.7448 15.7708 39.7812 16.8021 40.5312 18.1562C41.2917 19.5104 41.6719 21.1667 41.6719 23.125ZM30.2031 23.125C30.2031 24.1354 30.2917 24.9896 30.4688 25.6875C30.6458 26.375 30.9271 26.901 31.3125 27.2656C31.7083 27.6198 32.224 27.7969 32.8594 27.7969C33.4948 27.7969 34 27.6198 34.375 27.2656C34.75 26.901 35.0208 26.375 35.1875 25.6875C35.3646 24.9896 35.4531 24.1354 35.4531 23.125C35.4531 22.1146 35.3646 21.2708 35.1875 20.5938C35.0208 19.9167 34.7448 19.4062 34.3594 19.0625C33.9844 18.7188 33.474 18.5469 32.8281 18.5469C31.901 18.5469 31.2292 18.9323 30.8125 19.7031C30.4062 20.474 30.2031 21.6146 30.2031 23.125Z" fill="black"/>
<path d="M30.2031 23.125C30.2031 24.1354 30.2917 24.9896 30.4688 25.6875C30.6458 26.375 30.9271 26.901 31.3125 27.2656C31.7083 27.6198 32.224 27.7969 32.8594 27.7969C33.4948 27.7969 34 27.6198 34.375 27.2656C34.75 26.901 35.0208 26.375 35.1875 25.6875C35.3646 24.9896 35.4531 24.1354 35.4531 23.125C35.4531 22.1146 35.3646 21.2708 35.1875 20.5938C35.0208 19.9167 34.7448 19.4062 34.3594 19.0625C33.9844 18.7188 33.474 18.5469 32.8281 18.5469C31.901 18.5469 31.2292 18.9323 30.8125 19.7031C30.4062 20.474 30.2031 21.6146 30.2031 23.125Z" fill="white"/>
<path d="M36.8403 32.541L36.8403 32.541L36.8482 32.5381C37.9926 32.113 39.0859 31.5907 40.0087 30.6555C40.8931 29.7591 41.5551 28.6656 42.005 27.3967C42.4565 26.1231 42.6719 24.6942 42.6719 23.125C42.6719 21.0404 42.2672 19.2067 41.4047 17.6694C40.5647 16.1536 39.3913 14.9827 37.8939 14.1809C36.4076 13.3851 34.7313 13 32.8906 13C30.9191 13 29.1622 13.3791 27.6558 14.1794L27.6558 14.1794L27.653 14.1809C26.151 14.9851 24.9889 16.1619 24.1792 17.6874L24.1792 17.6874L24.1764 17.6928C23.3752 19.2246 23 21.0494 23 23.125C23 24.6991 23.2272 26.1335 23.7036 27.4118L23.7036 27.4118L23.7064 27.4192C24.1896 28.6848 24.8785 29.7733 25.782 30.6649C26.7186 31.5892 27.7962 32.1094 28.9085 32.5347L28.9085 32.5348L28.9195 32.5389C30.1702 33.0003 31.5734 33.0001 32.7989 33L32.8594 33L32.9187 33C34.2373 33.0001 35.5714 33.0002 36.8403 32.541Z" stroke="white" stroke-width="2"/>
</svg>
