<svg width="255" height="231" viewBox="0 0 255 231" fill="none" xmlns="http://www.w3.org/2000/svg">
<path d="M93 132C93 139.965 95.2124 147.774 99.3906 154.556C103.569 161.337 109.548 166.825 116.663 170.407C123.777 173.989 131.747 175.524 139.683 174.842C147.619 174.16 155.21 171.287 161.608 166.543C168.007 161.799 172.962 155.372 175.922 147.977C178.881 140.581 179.729 132.51 178.369 124.661C177.01 116.813 173.497 109.496 168.223 103.527C162.948 97.5583 156.12 93.1717 148.499 90.8565M130.433 89.3619C122.874 90.3488 115.713 93.3276 109.684 97.993" stroke="#B3B3B3" stroke-width="8" stroke-linecap="round"/>
<path d="M204 107C204 119.596 200.501 131.945 193.894 142.669C187.287 153.393 177.83 162.072 166.58 167.736C155.329 173.401 142.726 175.829 130.176 174.75C117.626 173.671 105.622 169.128 95.5033 161.626C85.3844 154.125 77.548 143.96 72.8679 132.265C68.1878 120.571 66.8479 107.806 68.9977 95.3945C71.1475 82.983 76.7025 71.4126 85.0432 61.9733C93.3839 52.5341 104.182 45.5971 116.235 41.9359M81.1907 48.8835C80.4452 51.8655 78.5239 54.3052 77.9845 57.4174C77.0819 62.6247 77.0018 67.92 76.8515 73.1834M80.7568 112.671C81.1438 116.783 81.7218 121.394 80.9014 125.496C80.1768 129.119 78.3723 132.757 76.8515 136.103M203.992 140.876C202.873 146.099 195.194 151.574 190.106 152.592" stroke="#B3B3B3" stroke-width="8" stroke-linecap="round"/>
<path d="M158.43 54.9585C158.43 84.1482 155.791 115.258 138.927 140.153C132.825 149.16 125.108 157.558 115.591 163.006C110.902 165.691 105.819 167.036 100.717 168.647M157.128 126.122C153.089 129.302 148.897 132.304 144.93 135.572C140.477 139.241 136.897 143.81 133.262 148.253M158.864 80.5602C165.003 78.2983 170.165 73.084 171.447 66.6745M130.224 132.631C130.224 136.384 130.344 140.161 130.224 143.913C130.13 146.868 128.764 149.492 127.621 152.158" stroke="#B3B3B3" stroke-width="8" stroke-linecap="round"/>
<path d="M46.8499 60C44.9461 64.673 41.9161 70.4649 40.5 75.5C38.6546 82.0616 38.6731 86.772 38 93.5033M48.7464 86.5497C44.2968 81.8036 42.5 78.5104 42.5 72" stroke="#B3B3B3" stroke-width="6" stroke-linecap="round"/>
<path d="M221.741 157.956C221.202 169.777 212.922 181.982 202.556 187.449C196.975 190.392 189.729 191.969 183.477 192.834M199.758 183.136C198.011 186.163 195.858 187.965 192.948 189.886M228.416 166.017C224.251 167.133 221.25 169.133 218.72 172.72" stroke="#B3B3B3" stroke-width="6" stroke-linecap="round"/>
</svg>
